<?xml version="1.0" standalone="no"?><!DOCTYPE svg PUBLIC "-//W3C//DTD SVG 1.1//EN" "http://www.w3.org/Graphics/SVG/1.1/DTD/svg11.dtd"><svg t="1746617706329" class="icon" viewBox="0 0 1043 1024" version="1.1" xmlns="http://www.w3.org/2000/svg" p-id="11794" xmlns:xlink="http://www.w3.org/1999/xlink" width="65.1875" height="64"><path d="M362.50854 304.427973a159.144054 79.613277 0 1 0 318.288108 0 159.144054 79.613277 0 1 0-318.288108 0Z" fill="#1F15E8" p-id="11795"></path><path d="M938.03416 679.641637a133.898808 52.635514 90 1 0 105.271029 0 133.898808 52.635514 90 1 0-105.271029 0Z" fill="#1F15E8" p-id="11796"></path><path d="M0 679.641637a133.898808 52.635514 90 1 0 105.271028 0 133.898808 52.635514 90 1 0-105.271028 0Z" fill="#1F15E8" p-id="11797"></path><path d="M990.669675 679.641637c0 213.512085-209.96455 344.358363-469.017081 344.358363S52.635514 893.236223 52.635514 679.641637s209.96455-386.598775 469.01708-386.598775 469.01708 173.08669 469.017081 386.598775z" fill="#1F15E8" p-id="11798"></path><path d="M850.170802 679.641637c-5.280052 195.856913-147.098937 195.691911-328.600709 195.691911s-328.188205 0.825008-328.600709-195.691911 147.098937-195.691911 328.600709-195.691911 333.880761 0 328.600709 195.691911z" fill="#F9F9F9" p-id="11799"></path><path d="M362.426039 679.641637m-77.303255 0a77.303255 77.303255 0 1 0 154.60651 0 77.303255 77.303255 0 1 0-154.60651 0Z" fill="#1919DB" p-id="11800"></path><path d="M680.796648 679.641637m-77.303255 0a77.303255 77.303255 0 1 0 154.60651 0 77.303255 77.303255 0 1 0-154.60651 0Z" fill="#1919DB" p-id="11801"></path><path d="M501.192394 260.620045C475.039639 66.000645 691.686755 34.650338 693.914277 34.402836l3.300032 24.750242c-8.250081 1.07251-194.371898 28.71028-171.436674 198.414437z" fill="#1E1ED6" p-id="11802"></path><path d="M722.047051 53.29552m-53.29552 0a53.29552 53.29552 0 1 0 106.591041 0 53.29552 53.29552 0 1 0-106.591041 0Z" fill="#1F15E8" p-id="11803"></path></svg>